<svg width="60" height="60" viewBox="0 0 60 60" fill="none" xmlns="http://www.w3.org/2000/svg">
<circle cx="30" cy="30" r="30" fill="#270738"/>
<path d="M40.0133 21.8L32.0933 17.2266C30.8 16.48 29.2 16.48 27.8933 17.2266L19.9866 21.8C18.6933 22.5466 17.8933 23.9333 17.8933 25.44V34.56C17.8933 36.0533 18.6933 37.44 19.9866 38.2L27.9066 42.7733C29.2 43.52 30.8 43.52 32.1066 42.7733L40.0266 38.2C41.32 37.4533 42.12 36.0666 42.12 34.56V25.44C42.1066 23.9333 41.3066 22.56 40.0133 21.8ZM30 23.7866C31.72 23.7866 33.1066 25.1733 33.1066 26.8933C33.1066 28.6133 31.72 30 30 30C28.28 30 26.8933 28.6133 26.8933 26.8933C26.8933 25.1866 28.28 23.7866 30 23.7866ZM33.5733 36.2133H26.4266C25.3466 36.2133 24.72 35.0133 25.32 34.12C26.2266 32.7733 27.9866 31.8666 30 31.8666C32.0133 31.8666 33.7733 32.7733 34.68 34.12C35.28 35 34.64 36.2133 33.5733 36.2133Z" fill="white"/>
</svg>
