<svg width="25" height="24" viewBox="0 0 25 24" fill="none" xmlns="http://www.w3.org/2000/svg">
<path d="M22.375 8.27V4.23C22.375 2.64 21.735 2 20.145 2H16.105C14.515 2 13.875 2.64 13.875 4.23V8.27C13.875 9.86 14.515 10.5 16.105 10.5H20.145C21.735 10.5 22.375 9.86 22.375 8.27Z" stroke="#FF8969" stroke-width="2" stroke-linecap="round" stroke-linejoin="round"/>
<path d="M10.875 8.52V3.98C10.875 2.57 10.235 2 8.645 2H4.605C3.015 2 2.375 2.57 2.375 3.98V8.51C2.375 9.93 3.015 10.49 4.605 10.49H8.645C10.235 10.5 10.875 9.93 10.875 8.52Z" stroke="#FF8969" stroke-width="2" stroke-linecap="round" stroke-linejoin="round"/>
<path d="M10.875 19.77V15.73C10.875 14.14 10.235 13.5 8.645 13.5H4.605C3.015 13.5 2.375 14.14 2.375 15.73V19.77C2.375 21.36 3.015 22 4.605 22H8.645C10.235 22 10.875 21.36 10.875 19.77Z" stroke="#FF8969" stroke-width="2" stroke-linecap="round" stroke-linejoin="round"/>
<path d="M15.375 15.5H21.375" stroke="#FF8969" stroke-width="2" stroke-linecap="round"/>
<path d="M15.375 19.5H21.375" stroke="#FF8969" stroke-width="2" stroke-linecap="round"/>
</svg>
