<svg width="60" height="60" viewBox="0 0 60 60" fill="none" xmlns="http://www.w3.org/2000/svg">
<mask id="mask0_18_1546" style="mask-type:alpha" maskUnits="userSpaceOnUse" x="0" y="0" width="60" height="60">
<circle cx="30" cy="30" r="30" fill="#EFF3F6"/>
</mask>
<g mask="url(#mask0_18_1546)">
<rect width="60" height="60" fill="#EAEFF3"/>
<path d="M24.25 22.1875C23.7375 22.1875 23.3125 21.7625 23.3125 21.25V17.5C23.3125 16.9875 23.7375 16.5625 24.25 16.5625C24.7625 16.5625 25.1875 16.9875 25.1875 17.5V21.25C25.1875 21.7625 24.7625 22.1875 24.25 22.1875Z" fill="#5B86EF"/>
<path d="M34.25 22.1875C33.7375 22.1875 33.3125 21.7625 33.3125 21.25V17.5C33.3125 16.9875 33.7375 16.5625 34.25 16.5625C34.7625 16.5625 35.1875 16.9875 35.1875 17.5V21.25C35.1875 21.7625 34.7625 22.1875 34.25 22.1875Z" fill="#5B86EF"/>
<path opacity="0.4" d="M40.5 25.625V36.25C40.5 40 38.625 42.5 34.25 42.5H24.25C19.875 42.5 18 40 18 36.25V25.625C18 21.875 19.875 19.375 24.25 19.375H34.25C38.625 19.375 40.5 21.875 40.5 25.625Z" fill="#5B86EF"/>
<path d="M31.75 29.6875H24.25C23.7375 29.6875 23.3125 29.2625 23.3125 28.75C23.3125 28.2375 23.7375 27.8125 24.25 27.8125H31.75C32.2625 27.8125 32.6875 28.2375 32.6875 28.75C32.6875 29.2625 32.2625 29.6875 31.75 29.6875Z" fill="#5B86EF"/>
<path d="M28 35.9375H24.25C23.7375 35.9375 23.3125 35.5125 23.3125 35C23.3125 34.4875 23.7375 34.0625 24.25 34.0625H28C28.5125 34.0625 28.9375 34.4875 28.9375 35C28.9375 35.5125 28.5125 35.9375 28 35.9375Z" fill="#5B86EF"/>
<path d="M41.75 32.0375C40.6375 31.15 39.225 30.625 37.6875 30.625C36.15 30.625 34.7125 31.1625 33.5875 32.075C32.075 33.2625 31.125 35.125 31.125 37.1875C31.125 38.4125 31.475 39.5875 32.075 40.5625C32.5375 41.325 33.1375 41.9875 33.85 42.5C34.925 43.2875 36.25 43.75 37.6875 43.75C39.35 43.75 40.85 43.1375 42 42.1125C42.5125 41.6875 42.95 41.1625 43.3 40.5625C43.9 39.5875 44.25 38.4125 44.25 37.1875C44.25 35.1 43.275 33.2375 41.75 32.0375ZM37.6875 40.3125C37.6875 38.5875 36.2875 37.1875 34.5625 37.1875C36.2875 37.1875 37.6875 35.7875 37.6875 34.0625C37.6875 35.7875 39.0875 37.1875 40.8125 37.1875C39.0875 37.1875 37.6875 38.5875 37.6875 40.3125Z" fill="#5B86EF"/>
</g>
</svg>
