<svg width="121" height="120" viewBox="0 0 121 120" fill="none" xmlns="http://www.w3.org/2000/svg">
<mask id="mask0_18_1863" style="mask-type:alpha" maskUnits="userSpaceOnUse" x="0" y="0" width="121" height="120">
<circle cx="60.5" cy="60" r="60" fill="#EFF3F6"/>
</mask>
<g mask="url(#mask0_18_1863)">
<rect x="0.5" width="120" height="120" fill="#EAEFF3"/>
<path opacity="0.4" d="M70.7166 40.3646H51.2833C45.6229 40.3646 41.0396 44.9709 41.0396 50.6084V72.173C41.0396 77.8105 45.6458 82.4167 51.2833 82.4167H70.6937C76.3541 82.4167 80.9375 77.8105 80.9375 72.173V50.6084C80.9604 44.948 76.3541 40.3646 70.7166 40.3646Z" fill="#5B86EF"/>
<path d="M66.3855 36.5834H55.6147C53.2314 36.5834 51.2834 38.5084 51.2834 40.8917V43.0459C51.2834 45.4292 53.2084 47.3542 55.5918 47.3542H66.3855C68.7689 47.3542 70.6939 45.4292 70.6939 43.0459V40.8917C70.7168 38.5084 68.7689 36.5834 66.3855 36.5834Z" fill="#5B86EF"/>
<path d="M58.2728 70.8438C57.8374 70.8438 57.402 70.6834 57.0583 70.3396L53.6208 66.9021C52.9562 66.2375 52.9562 65.1375 53.6208 64.473C54.2853 63.8084 55.3853 63.8084 56.0499 64.473L58.2728 66.6959L66.2249 58.7438C66.8895 58.0792 67.9895 58.0792 68.6541 58.7438C69.3187 59.4084 69.3187 60.5084 68.6541 61.173L59.4874 70.3396C59.1666 70.6834 58.7083 70.8438 58.2728 70.8438Z" fill="#5B86EF"/>
</g>
</svg>
