<svg width="25" height="24" viewBox="0 0 25 24" fill="none" xmlns="http://www.w3.org/2000/svg">
<path d="M17.625 18.4301H13.625L9.17499 21.39C8.51499 21.83 7.625 21.3601 7.625 20.5601V18.4301C4.625 18.4301 2.625 16.4301 2.625 13.4301V7.42999C2.625 4.42999 4.625 2.42999 7.625 2.42999H17.625C20.625 2.42999 22.625 4.42999 22.625 7.42999V13.4301C22.625 16.4301 20.625 18.4301 17.625 18.4301Z" stroke="#BABEC7" stroke-width="2" stroke-miterlimit="10" stroke-linecap="round" stroke-linejoin="round"/>
<path d="M12.625 11.36V11.15C12.625 10.47 13.045 10.11 13.465 9.82001C13.875 9.54001 14.285 9.18002 14.285 8.52002C14.285 7.60002 13.545 6.85999 12.625 6.85999C11.705 6.85999 10.965 7.60002 10.965 8.52002" stroke="#BABEC7" stroke-width="2" stroke-linecap="round" stroke-linejoin="round"/>
<path d="M12.6205 13.75H12.6295" stroke="#BABEC7" stroke-width="2" stroke-linecap="round" stroke-linejoin="round"/>
</svg>
