<svg width="25" height="24" viewBox="0 0 25 24" fill="none" xmlns="http://www.w3.org/2000/svg">
<path d="M20.375 12.5C20.375 11.12 21.495 10 22.875 10V9C22.875 5 21.875 4 17.875 4H7.875C3.875 4 2.875 5 2.875 9V9.5C4.255 9.5 5.375 10.62 5.375 12C5.375 13.38 4.255 14.5 2.875 14.5V15C2.875 19 3.875 20 7.875 20H17.875C21.875 20 22.875 19 22.875 15C21.495 15 20.375 13.88 20.375 12.5Z" stroke="#BABEC7" stroke-width="2" stroke-linecap="round" stroke-linejoin="round"/>
<path d="M9.875 14.75L15.875 8.75" stroke="#BABEC7" stroke-width="2" stroke-linecap="round" stroke-linejoin="round"/>
<path d="M15.8695 14.75H15.8785" stroke="#BABEC7" stroke-width="2" stroke-linecap="round" stroke-linejoin="round"/>
<path d="M9.86951 9.25H9.87849" stroke="#BABEC7" stroke-width="2" stroke-linecap="round" stroke-linejoin="round"/>
</svg>
