<svg width="151" height="36" viewBox="0 0 151 36" fill="none" xmlns="http://www.w3.org/2000/svg">
<g clip-path="url(#clip0_4_49)">
<path d="M17.0571 9.96534C16.7027 6.92886 16.3286 3.7228 16.3286 0H19.6714C19.6714 3.68098 19.2991 6.88297 18.9452 9.92286C18.6569 12.4002 18.3811 14.7699 18.3299 17.2035C20.0084 15.4527 21.4767 13.5963 23.0148 11.6517C24.9112 9.25407 26.9139 6.7225 29.5461 4.09018L31.9099 6.45394C29.307 9.05679 26.7792 11.0575 24.3796 12.9569L24.3773 12.9586C22.4227 14.506 20.5528 15.9862 18.7965 17.6701C21.2211 17.6188 23.572 17.3445 26.0345 17.0572C29.071 16.7027 32.2772 16.3286 36 16.3286V19.6714C32.3192 19.6714 29.1172 19.2989 26.0774 18.9452L26.0752 18.945C23.5984 18.6568 21.2294 18.3812 18.7965 18.3299C20.5461 20.0072 22.4015 21.4748 24.3449 23.0118L24.348 23.0144C26.7457 24.911 29.2774 26.9135 31.9099 29.5461L29.5461 31.9099C26.9432 29.3071 24.9426 26.7795 23.0434 24.38L23.0389 24.3738L23.0351 24.3688C21.4897 22.4173 20.0114 20.5504 18.3299 18.7965C18.3811 21.2301 18.6569 23.5998 18.9452 26.0771C19.2991 29.1171 19.6714 32.319 19.6714 36H16.3286C16.3286 32.2772 16.7027 29.0712 17.0571 26.0347L17.0578 26.0297C17.3448 23.5689 17.6188 21.2195 17.6701 18.7965C15.9886 20.5504 14.5103 22.4173 12.9649 24.3688L12.9611 24.3738L12.9566 24.38C11.0574 26.7795 9.05679 29.3071 6.45394 31.9099L4.09018 29.5461C6.72263 26.9135 9.25434 24.911 11.652 23.0144L11.6551 23.0118C13.5985 21.4748 15.4539 20.0072 17.2035 18.3299C14.7699 18.3813 12.4001 18.657 9.92259 18.9452C6.88284 19.2989 3.68086 19.6714 0 19.6714V16.3286C3.7228 16.3286 6.92905 16.7027 9.96552 17.0572C12.428 17.3445 14.7789 17.6188 17.2035 17.6701C15.4464 15.9855 13.5759 14.5049 11.6204 12.9569C9.22077 11.0575 6.69299 9.05679 4.09018 6.45394L6.45394 4.09018C9.08613 6.7225 11.0888 9.25407 12.9852 11.6517C14.5233 13.5962 15.9916 15.4526 17.6701 17.2033C17.6188 14.7804 17.3448 12.4311 17.0578 9.97029L17.0571 9.96534Z" fill="#FF8969"/>
</g>
<path d="M55.3789 8.864C57.5389 8.864 59.3229 9.432 60.7309 10.568C62.1549 11.704 63.0749 13.24 63.4909 15.176H59.1469C58.8269 14.392 58.3309 13.776 57.6589 13.328C57.0029 12.88 56.2189 12.656 55.3069 12.656C54.1069 12.656 53.1389 13.096 52.4029 13.976C51.6669 14.856 51.2989 16.032 51.2989 17.504C51.2989 18.976 51.6669 20.152 52.4029 21.032C53.1389 21.896 54.1069 22.328 55.3069 22.328C56.2189 22.328 57.0029 22.104 57.6589 21.656C58.3309 21.208 58.8269 20.6 59.1469 19.832H63.4909C63.0749 21.752 62.1549 23.288 60.7309 24.44C59.3229 25.576 57.5389 26.144 55.3789 26.144C53.7309 26.144 52.2829 25.784 51.0349 25.064C49.7869 24.328 48.8189 23.304 48.1309 21.992C47.4589 20.68 47.1229 19.184 47.1229 17.504C47.1229 15.824 47.4589 14.328 48.1309 13.016C48.8189 11.704 49.7869 10.688 51.0349 9.968C52.2829 9.232 53.7309 8.864 55.3789 8.864ZM70.879 12.44C71.903 12.44 72.783 12.672 73.519 13.136C74.255 13.6 74.799 14.232 75.151 15.032V12.608H79.231V26H75.151V23.576C74.799 24.376 74.255 25.008 73.519 25.472C72.783 25.936 71.903 26.168 70.879 26.168C69.775 26.168 68.783 25.896 67.903 25.352C67.039 24.792 66.351 23.992 65.839 22.952C65.343 21.912 65.095 20.696 65.095 19.304C65.095 17.896 65.343 16.68 65.839 15.656C66.351 14.616 67.039 13.824 67.903 13.28C68.783 12.72 69.775 12.44 70.879 12.44ZM72.199 16.04C71.319 16.04 70.607 16.328 70.063 16.904C69.535 17.48 69.271 18.28 69.271 19.304C69.271 20.328 69.535 21.128 70.063 21.704C70.607 22.28 71.319 22.568 72.199 22.568C73.063 22.568 73.767 22.272 74.311 21.68C74.871 21.088 75.151 20.296 75.151 19.304C75.151 18.296 74.871 17.504 74.311 16.928C73.767 16.336 73.063 16.04 72.199 16.04ZM86.1606 15.128C86.6726 14.312 87.3286 13.664 88.1286 13.184C88.9446 12.704 89.8246 12.464 90.7686 12.464V16.856H89.5926C88.5046 16.856 87.6566 17.088 87.0486 17.552C86.4566 18.016 86.1606 18.8 86.1606 19.904V26H82.0566V12.608H86.1606V15.128ZM100.238 8.864C102.398 8.864 104.182 9.432 105.59 10.568C107.014 11.704 107.934 13.24 108.35 15.176H104.006C103.686 14.392 103.19 13.776 102.518 13.328C101.862 12.88 101.078 12.656 100.166 12.656C98.9663 12.656 97.9983 13.096 97.2623 13.976C96.5263 14.856 96.1583 16.032 96.1583 17.504C96.1583 18.976 96.5263 20.152 97.2623 21.032C97.9983 21.896 98.9663 22.328 100.166 22.328C101.078 22.328 101.862 22.104 102.518 21.656C103.19 21.208 103.686 20.6 104.006 19.832H108.35C107.934 21.752 107.014 23.288 105.59 24.44C104.182 25.576 102.398 26.144 100.238 26.144C98.5903 26.144 97.1423 25.784 95.8943 25.064C94.6463 24.328 93.6783 23.304 92.9903 21.992C92.3183 20.68 91.9823 19.184 91.9823 17.504C91.9823 15.824 92.3183 14.328 92.9903 13.016C93.6783 11.704 94.6463 10.688 95.8943 9.968C97.1423 9.232 98.5903 8.864 100.238 8.864ZM115.738 12.44C116.762 12.44 117.642 12.672 118.378 13.136C119.114 13.6 119.658 14.232 120.01 15.032V12.608H124.09V26H120.01V23.576C119.658 24.376 119.114 25.008 118.378 25.472C117.642 25.936 116.762 26.168 115.738 26.168C114.634 26.168 113.642 25.896 112.762 25.352C111.898 24.792 111.21 23.992 110.698 22.952C110.202 21.912 109.954 20.696 109.954 19.304C109.954 17.896 110.202 16.68 110.698 15.656C111.21 14.616 111.898 13.824 112.762 13.28C113.642 12.72 114.634 12.44 115.738 12.44ZM117.058 16.04C116.178 16.04 115.466 16.328 114.922 16.904C114.394 17.48 114.13 18.28 114.13 19.304C114.13 20.328 114.394 21.128 114.922 21.704C115.466 22.28 116.178 22.568 117.058 22.568C117.922 22.568 118.626 22.272 119.17 21.68C119.73 21.088 120.01 20.296 120.01 19.304C120.01 18.296 119.73 17.504 119.17 16.928C118.626 16.336 117.922 16.04 117.058 16.04ZM131.02 15.128C131.532 14.312 132.188 13.664 132.988 13.184C133.804 12.704 134.684 12.464 135.628 12.464V16.856H134.452C133.364 16.856 132.516 17.088 131.908 17.552C131.316 18.016 131.02 18.8 131.02 19.904V26H126.916V12.608H131.02V15.128ZM150.066 18.944C150.066 19.28 150.026 19.648 149.946 20.048H140.658C140.706 21.056 140.962 21.784 141.426 22.232C141.89 22.664 142.482 22.88 143.202 22.88C143.81 22.88 144.314 22.728 144.714 22.424C145.114 22.12 145.378 21.728 145.506 21.248H149.85C149.674 22.192 149.29 23.04 148.698 23.792C148.106 24.528 147.354 25.112 146.442 25.544C145.53 25.96 144.514 26.168 143.394 26.168C142.082 26.168 140.914 25.896 139.89 25.352C138.882 24.792 138.09 23.992 137.514 22.952C136.938 21.912 136.65 20.696 136.65 19.304C136.65 17.896 136.93 16.68 137.49 15.656C138.066 14.616 138.866 13.824 139.89 13.28C140.914 12.72 142.082 12.44 143.394 12.44C144.722 12.44 145.89 12.712 146.898 13.256C147.906 13.8 148.682 14.568 149.226 15.56C149.786 16.536 150.066 17.664 150.066 18.944ZM145.914 18.32C145.93 17.44 145.69 16.784 145.194 16.352C144.714 15.904 144.114 15.68 143.394 15.68C142.642 15.68 142.018 15.904 141.522 16.352C141.026 16.8 140.746 17.456 140.682 18.32H145.914Z" fill="white"/>
<defs>
<clipPath id="clip0_4_49">
<rect width="36" height="36" fill="white"/>
</clipPath>
</defs>
</svg>
